<mxfile host="65bd71144e">
    <diagram id="NkEvDrXUQuuK_nOL2rht" name="Page-1">
        <mxGraphModel dx="1708" dy="1106" grid="0" gridSize="10" guides="1" tooltips="1" connect="1" arrows="1" fold="1" page="1" pageScale="1" pageWidth="850" pageHeight="1100" background="#FFFFFF" math="0" shadow="0">
            <root>
                <mxCell id="0"/>
                <mxCell id="1" parent="0"/>
                <mxCell id="89" value="" style="rounded=0;whiteSpace=wrap;html=1;strokeColor=#FFFFFF;strokeWidth=2;fontColor=#070B1D;fillColor=none;gradientColor=none;" parent="1" vertex="1">
                    <mxGeometry x="117" y="246" width="609" height="586" as="geometry"/>
                </mxCell>
                <mxCell id="65" value="&lt;font style=&quot;font-size: 16px;&quot;&gt;Bank Simulation&lt;/font&gt;" style="shape=umlFrame;whiteSpace=wrap;html=1;width=144;height=35;boundedLbl=1;verticalAlign=middle;align=left;spacingLeft=5;strokeWidth=2;swimlaneFillColor=none;perimeterSpacing=1;strokeColor=#070B1D;" parent="1" vertex="1">
                    <mxGeometry x="262" y="290" width="364" height="503" as="geometry"/>
                </mxCell>
                <mxCell id="31" value="&lt;font style=&quot;font-size: 14px;&quot;&gt;BU2 - Make transaction&lt;/font&gt;" style="ellipse;whiteSpace=wrap;html=1;strokeColor=#000000;strokeWidth=2;fontColor=#070B1D;fillColor=none;gradientColor=none;" parent="1" vertex="1">
                    <mxGeometry x="360" y="441" width="165" height="84" as="geometry"/>
                </mxCell>
                <mxCell id="101" value="" style="endArrow=none;html=1;strokeColor=#000000;entryX=1;entryY=0.3333333333333333;entryDx=0;entryDy=0;exitX=0;exitY=0.5;exitDx=0;exitDy=0;entryPerimeter=0;" parent="1" source="31" target="120" edge="1">
                    <mxGeometry width="50" height="50" relative="1" as="geometry">
                        <mxPoint x="377" y="943.5" as="sourcePoint"/>
                        <mxPoint x="222.99999999999955" y="969.9999999999998" as="targetPoint"/>
                    </mxGeometry>
                </mxCell>
                <mxCell id="120" value="&lt;font style=&quot;font-size: 14px;&quot; color=&quot;#070b1d&quot;&gt;BA1 - St{au}cktion&lt;br&gt;&lt;/font&gt;" style="shape=umlActor;verticalLabelPosition=bottom;verticalAlign=top;html=1;strokeColor=#070B1D;strokeWidth=2;fillColor=#070B1D;gradientColor=none;" parent="1" vertex="1">
                    <mxGeometry x="169" y="482" width="30" height="60" as="geometry"/>
                </mxCell>
                <mxCell id="204" value="&lt;font style=&quot;font-size: 14px;&quot;&gt;BU3 - Log action&lt;/font&gt;" style="ellipse;whiteSpace=wrap;html=1;strokeColor=#000000;strokeWidth=2;fontColor=#070B1D;fillColor=none;gradientColor=none;" parent="1" vertex="1">
                    <mxGeometry x="360" y="548" width="165" height="84" as="geometry"/>
                </mxCell>
                <mxCell id="205" value="" style="endArrow=none;html=1;strokeColor=#000000;entryX=1;entryY=0.3333333333333333;entryDx=0;entryDy=0;exitX=0;exitY=0.5;exitDx=0;exitDy=0;entryPerimeter=0;" parent="1" source="204" target="120" edge="1">
                    <mxGeometry width="50" height="50" relative="1" as="geometry">
                        <mxPoint x="380" y="1074.5" as="sourcePoint"/>
                        <mxPoint x="199" y="697" as="targetPoint"/>
                    </mxGeometry>
                </mxCell>
                <mxCell id="207" value="&lt;font style=&quot;font-size: 14px;&quot;&gt;BU1 - Check balance&lt;/font&gt;" style="ellipse;whiteSpace=wrap;html=1;strokeColor=#000000;strokeWidth=2;fontColor=#070B1D;fillColor=none;gradientColor=none;" parent="1" vertex="1">
                    <mxGeometry x="360" y="334" width="165" height="84" as="geometry"/>
                </mxCell>
                <mxCell id="208" value="" style="endArrow=none;html=1;strokeColor=#000000;entryX=1;entryY=0.3333333333333333;entryDx=0;entryDy=0;exitX=0;exitY=0.5;exitDx=0;exitDy=0;entryPerimeter=0;" parent="1" source="207" target="120" edge="1">
                    <mxGeometry width="50" height="50" relative="1" as="geometry">
                        <mxPoint x="394" y="1231.5" as="sourcePoint"/>
                        <mxPoint x="210" y="723" as="targetPoint"/>
                    </mxGeometry>
                </mxCell>
                <mxCell id="209" value="&lt;font style=&quot;font-size: 14px;&quot;&gt;BU4 - Manage provision&amp;nbsp;&lt;/font&gt;" style="ellipse;whiteSpace=wrap;html=1;strokeColor=#000000;strokeWidth=2;fontColor=#070B1D;fillColor=none;gradientColor=none;" parent="1" vertex="1">
                    <mxGeometry x="361.5" y="652" width="165" height="84" as="geometry"/>
                </mxCell>
                <mxCell id="210" value="" style="endArrow=none;html=1;strokeColor=#000000;entryX=1;entryY=0.3333333333333333;entryDx=0;entryDy=0;exitX=0;exitY=0.5;exitDx=0;exitDy=0;entryPerimeter=0;" parent="1" source="209" target="120" edge="1">
                    <mxGeometry width="50" height="50" relative="1" as="geometry">
                        <mxPoint x="404" y="1372.5" as="sourcePoint"/>
                        <mxPoint x="220" y="864" as="targetPoint"/>
                    </mxGeometry>
                </mxCell>
            </root>
        </mxGraphModel>
    </diagram>
</mxfile>